<?xml version='1.0' encoding='UTF-8'?>
<svg version="1.1" xmlns="http://www.w3.org/2000/svg" width="512" height="512">
 <path d="M0 0 C3.55773891 0.00478087 7.11542632 -0.00782112 10.67314804 -0.01801741 C17.62234006 -0.03511586 24.5714413 -0.03606413 31.52064887 -0.03080451 C37.17562418 -0.02674456 42.83057289 -0.02822789 48.48554695 -0.03355277 C49.29384958 -0.03430119 50.10215221 -0.03504961 50.93494886 -0.03582071 C52.57761342 -0.03735237 54.22027798 -0.03889072 55.86294254 -0.04043568 C71.22909896 -0.05412847 86.5952043 -0.04874589 101.96135952 -0.03725047 C115.97991981 -0.02732276 129.99834802 -0.04025651 144.01688794 -0.06418466 C158.45566836 -0.08864199 172.89438743 -0.09816721 187.33318812 -0.09153193 C195.42163275 -0.08805424 203.50997594 -0.09017514 211.59840477 -0.10778296 C218.4841407 -0.12258833 225.36970373 -0.12303269 232.25543658 -0.10571205 C235.75969592 -0.09726732 239.26364751 -0.09488952 242.76788986 -0.1103636 C275.3424122 -0.22412692 306.53602827 6.0210218 331.56583297 28.40683305 C332.78786422 29.45097368 332.78786422 29.45097368 334.03458297 30.51620805 C356.99875644 50.50354422 373.33914841 78.80744069 376.56583297 109.40683305 C377.08119853 118.20619567 376.99266143 127.02999403 376.97266603 135.84100008 C376.96788516 139.39873899 376.98048714 142.9564264 376.99068344 146.51414812 C377.00778188 153.46334014 377.00873015 160.41244138 377.00347053 167.36164895 C376.99941059 173.01662426 377.00089391 178.67157297 377.00621879 184.32654703 C377.00696721 185.13484966 377.00771564 185.94315229 377.00848674 186.77594894 C377.01001839 188.4186135 377.01155674 190.06127807 377.0131017 191.70394262 C377.0267945 207.07009904 377.02141191 222.43620438 377.00991649 237.8023596 C376.99998878 251.82091989 377.01292253 265.8393481 377.03685068 279.85788802 C377.06130802 294.29666844 377.07083323 308.73538751 377.06419796 323.1741882 C377.06072026 331.26263283 377.06284117 339.35097602 377.08044899 347.43940485 C377.09525436 354.32514078 377.09569872 361.21070381 377.07837807 368.09643666 C377.06993335 371.600696 377.06755554 375.10464759 377.08302963 378.60888994 C377.19679294 411.18341228 370.95164422 442.37702835 348.56583297 467.40683305 C347.86973922 468.22152055 347.17364547 469.03620805 346.45645797 469.87558305 C326.46912181 492.83975652 298.16522534 509.18014849 267.56583297 512.40683305 C258.76647035 512.92219861 249.94267199 512.83366151 241.13166595 512.81366611 C237.57392703 512.80888524 234.01623963 512.82148722 230.45851791 512.83168352 C223.50932589 512.84878196 216.56022464 512.84973023 209.61101707 512.84447061 C203.95604177 512.84041067 198.30109306 512.84189399 192.646119 512.84721887 C191.83781637 512.84796729 191.02951374 512.84871572 190.19671709 512.84948682 C188.55405252 512.85101847 186.91138796 512.85255682 185.26872341 512.85410178 C169.90256699 512.86779458 154.53646164 512.862412 139.17030642 512.85091657 C125.15174614 512.84098886 111.13331793 512.85392261 97.114778 512.87785076 C82.67599759 512.9023081 68.23727852 512.91183331 53.79847783 512.90519804 C45.71003319 512.90172034 37.62169001 512.90384125 29.53326118 512.92144907 C22.64752524 512.93625444 15.76196221 512.9366988 8.87622937 512.91937815 C5.37197003 512.91093343 1.86801843 512.90855562 -1.63622391 512.92402971 C-40.62586481 513.06019719 -73.30950629 502.17092122 -101.43416703 474.40683305 C-126.16758952 449.7131749 -135.78564025 417.10891172 -135.85186112 382.96954668 C-135.84871101 380.97058566 -135.84553645 378.97162437 -135.84100008 376.97266603 C-135.83621921 373.41492711 -135.8488212 369.85723971 -135.85901749 366.29951799 C-135.87611594 359.35032597 -135.87706421 352.40122472 -135.87180459 345.45201715 C-135.86774464 339.79704185 -135.86922797 334.14209314 -135.87455285 328.48711908 C-135.87530127 327.67881645 -135.87604969 326.87051382 -135.87682079 326.03771717 C-135.87835245 324.3950526 -135.8798908 322.75238804 -135.88143576 321.10972349 C-135.89512855 305.74356707 -135.88974597 290.37746172 -135.87825055 275.0113065 C-135.86832284 260.99274622 -135.88125659 246.97431801 -135.90518474 232.95577808 C-135.92964207 218.51699767 -135.93916729 204.0782786 -135.93253201 189.63947791 C-135.92905432 181.55103327 -135.93117522 173.46269009 -135.94878304 165.37426126 C-135.96358841 158.48852532 -135.96403277 151.60296229 -135.94671213 144.71722945 C-135.9382674 141.21297011 -135.9358896 137.70901851 -135.95136368 134.20477617 C-136.065127 101.63025383 -129.81997828 70.43663776 -107.43416703 45.40683305 C-106.73807328 44.59214555 -106.04197953 43.77745805 -105.32479203 42.93808305 C-77.33496576 10.77955925 -41.52187444 -0.09422835 0 0 Z M115.40787625 106.30662715 C114.54698783 107.1762541 114.54698783 107.1762541 113.66870773 108.06344926 C113.05854958 108.67189857 112.44839143 109.28034787 111.81974363 109.90723503 C109.76205334 111.96161264 107.71162508 114.02309164 105.66104782 116.08456743 C104.19322057 117.5529584 102.7249536 119.02090994 101.25627792 120.48845232 C97.25823051 124.48592372 93.266398 128.48955055 89.27561033 132.49426782 C85.1084648 136.67387953 80.93568978 140.84786297 76.76349533 145.02243364 C68.85824997 152.93390589 60.95811849 160.85046451 53.05978823 168.76883972 C44.06988971 177.78105967 35.07434059 186.78763031 26.07830012 195.7937187 C7.56782693 214.32512128 -10.93549903 232.86364665 -29.43416703 251.40683305 C-28.06857815 254.24057547 -26.78420472 256.30331743 -24.54500687 258.52304399 C-23.96455613 259.10334367 -23.38410538 259.68364336 -22.78606522 260.28152788 C-21.85003968 261.20206956 -21.85003968 261.20206956 -20.89510453 262.14120805 C-20.25424912 262.77923357 -19.61339371 263.41725908 -18.95311844 264.0746187 C-16.90978882 266.10677374 -14.85960721 268.13185523 -12.80916703 270.15683305 C-11.42068843 271.53527836 -10.03266213 272.91417942 -8.64510453 274.2935518 C-5.24668006 277.66995199 -1.84209449 281.04002593 1.56583297 284.40683305 C7.93396268 279.15435643 13.72984306 273.377526 19.54996383 267.53622758 C20.64436349 266.44154543 21.73898424 265.34708427 22.83380783 264.25282609 C25.78802111 261.29889832 28.73915296 258.34190964 31.6897198 255.38434017 C34.78021461 252.28757074 37.87356402 249.19365537 40.96660507 246.09942949 C46.81555803 240.24737529 52.66195839 234.39277788 58.50743431 228.53725076 C65.1657035 221.86778285 71.82683111 215.20117291 78.48819423 208.5347954 C92.18391189 194.82864071 105.87605571 181.11892092 119.56583297 167.40683305 C123.25578132 168.95516118 125.60046008 171.19481088 128.41269577 174.01318681 C128.88572199 174.48450418 129.35874821 174.95582155 129.84610856 175.44142127 C131.42772093 177.01974303 133.00208527 178.60509983 134.57657516 180.19052446 C135.70972606 181.32423956 136.84331765 182.45751432 137.97731674 183.59038103 C141.05379033 186.66628048 144.12405571 189.74831026 147.19325435 192.83146656 C150.40210835 196.05281755 153.6166217 199.26851095 156.83054245 202.48480546 C162.91534704 208.57582785 168.99503513 214.67193084 175.07290757 220.76986957 C181.99274412 227.71205578 188.91825614 234.64856823 195.8442539 241.58460677 C210.09111042 255.85237207 224.33081426 270.12725774 238.56583297 284.40683305 C239.66916998 283.47005461 240.77121553 282.53175498 241.872733 281.59283769 C242.48657631 281.0704898 243.10041963 280.54814191 243.73286426 280.0099653 C246.51588836 277.57590538 249.11803211 274.9785672 251.71817672 272.35214555 C252.26317321 271.80573411 252.8081697 271.25932268 253.36968124 270.69635332 C255.08329415 268.97721247 256.79336741 267.25460101 258.50333297 265.53183305 C259.67562501 264.35451667 260.84814912 263.17743131 262.0209111 262.00058305 C264.8719028 259.13865816 267.71972912 256.27361848 270.56583297 253.40683305 C268.92689577 249.23590031 265.87723677 246.43963007 262.75809371 243.34512651 C262.1575138 242.74142661 261.55693388 242.13772672 260.93815458 241.51573288 C258.92230245 239.49189647 256.89936835 237.47529205 254.87637985 235.45859087 C253.43065677 234.01015818 251.98535961 232.56130026 250.54045761 231.11204851 C246.61343084 227.17589354 242.68009124 223.24610379 238.74533165 219.31768072 C234.63396478 215.21136964 230.52747103 211.10019 226.42020309 206.98977983 C219.52361202 200.08954872 212.62281094 193.19354902 205.71964157 186.29989946 C197.72810811 178.31925922 189.74381697 170.33142767 181.76323354 162.33983862 C174.919335 155.48687859 168.07156467 148.63780575 161.2205137 141.79199612 C157.12491802 137.69952531 153.03070185 133.60569901 148.93996322 129.50837266 C145.0966309 125.65928375 141.24847886 121.81508069 137.39647377 117.97467172 C135.97973887 116.5605921 134.56472307 115.14478787 133.15151298 113.72718561 C131.23009916 111.80034925 129.30270122 109.87971229 127.37357223 107.96060503 C126.80879275 107.3913641 126.24401328 106.82212318 125.66211927 106.23563254 C120.96263038 101.58375396 120.09154895 101.65861516 115.40787625 106.30662715 Z M115.40787625 232.30662715 C114.54698783 233.1762541 114.54698783 233.1762541 113.66870773 234.06344926 C113.05854958 234.67189857 112.44839143 235.28034787 111.81974363 235.90723503 C109.76205334 237.96161264 107.71162508 240.02309164 105.66104782 242.08456743 C104.19322057 243.5529584 102.7249536 245.02090994 101.25627792 246.48845232 C97.25823051 250.48592372 93.266398 254.48955055 89.27561033 258.49426782 C85.1084648 262.67387953 80.93568978 266.84786297 76.76349533 271.02243364 C68.85824997 278.93390589 60.95811849 286.85046451 53.05978823 294.76883972 C44.06988971 303.78105967 35.07434059 312.78763031 26.07830012 321.7937187 C7.56782693 340.32512128 -10.93549903 358.86364665 -29.43416703 377.40683305 C-28.06857815 380.24057547 -26.78420472 382.30331743 -24.54500687 384.52304399 C-23.96455613 385.10334367 -23.38410538 385.68364336 -22.78606522 386.28152788 C-21.85003968 387.20206956 -21.85003968 387.20206956 -20.89510453 388.14120805 C-20.25424912 388.77923357 -19.61339371 389.41725908 -18.95311844 390.0746187 C-16.90978882 392.10677374 -14.85960721 394.13185523 -12.80916703 396.15683305 C-11.42068843 397.53527836 -10.03266213 398.91417942 -8.64510453 400.2935518 C-5.24668006 403.66995199 -1.84209449 407.04002593 1.56583297 410.40683305 C7.93396268 405.15435643 13.72984306 399.377526 19.54996383 393.53622758 C20.64436349 392.44154543 21.73898424 391.34708427 22.83380783 390.25282609 C25.78802111 387.29889832 28.73915296 384.34190964 31.6897198 381.38434017 C34.78021461 378.28757074 37.87356402 375.19365537 40.96660507 372.09942949 C46.81555803 366.24737529 52.66195839 360.39277788 58.50743431 354.53725076 C65.1657035 347.86778285 71.82683111 341.20117291 78.48819423 334.5347954 C92.18391189 320.82864071 105.87605571 307.11892092 119.56583297 293.40683305 C123.25578132 294.95516118 125.60046008 297.19481088 128.41269577 300.01318681 C128.88572199 300.48450418 129.35874821 300.95582155 129.84610856 301.44142127 C131.42772093 303.01974303 133.00208527 304.60509983 134.57657516 306.19052446 C135.70972606 307.32423956 136.84331765 308.45751432 137.97731674 309.59038103 C141.05379033 312.66628048 144.12405571 315.74831026 147.19325435 318.83146656 C150.40210835 322.05281755 153.6166217 325.26851095 156.83054245 328.48480546 C162.91534704 334.57582785 168.99503513 340.67193084 175.07290757 346.76986957 C181.99274412 353.71205578 188.91825614 360.64856823 195.8442539 367.58460677 C210.09111042 381.85237207 224.33081426 396.12725774 238.56583297 410.40683305 C239.66916998 409.47005461 240.77121553 408.53175498 241.872733 407.59283769 C242.48657631 407.0704898 243.10041963 406.54814191 243.73286426 406.0099653 C246.51588836 403.57590538 249.11803211 400.9785672 251.71817672 398.35214555 C252.26317321 397.80573411 252.8081697 397.25932268 253.36968124 396.69635332 C255.08329415 394.97721247 256.79336741 393.25460101 258.50333297 391.53183305 C259.67562501 390.35451667 260.84814912 389.17743131 262.0209111 388.00058305 C264.8719028 385.13865816 267.71972912 382.27361848 270.56583297 379.40683305 C268.92689577 375.23590031 265.87723677 372.43963007 262.75809371 369.34512651 C262.1575138 368.74142661 261.55693388 368.13772672 260.93815458 367.51573288 C258.92230245 365.49189647 256.89936835 363.47529205 254.87637985 361.45859087 C253.43065677 360.01015818 251.98535961 358.56130026 250.54045761 357.11204851 C246.61343084 353.17589354 242.68009124 349.24610379 238.74533165 345.31768072 C234.63396478 341.21136964 230.52747103 337.10019 226.42020309 332.98977983 C219.52361202 326.08954872 212.62281094 319.19354902 205.71964157 312.29989946 C197.72810811 304.31925922 189.74381697 296.33142767 181.76323354 288.33983862 C174.919335 281.48687859 168.07156467 274.63780575 161.2205137 267.79199612 C157.12491802 263.69952531 153.03070185 259.60569901 148.93996322 255.50837266 C145.0966309 251.65928375 141.24847886 247.81508069 137.39647377 243.97467172 C135.97973887 242.5605921 134.56472307 241.14478787 133.15151298 239.72718561 C131.23009916 237.80034925 129.30270122 235.87971229 127.37357223 233.96060503 C126.80879275 233.3913641 126.24401328 232.82212318 125.66211927 232.23563254 C120.96263038 227.58375396 120.09154895 227.65861516 115.40787625 232.30662715 Z " transform="translate(135.43416702747345,-0.40683305263519287)" fill="#5FA916"/>
</svg>
